<svg width="30" height="30" viewBox="0 0 50 50" fill="none" xmlns="http://www.w3.org/2000/svg">
<path d="M19.0439 0C17.3994 0 16.0439 1.35547 16.0439 3V6H3.04395C1.39941 6 0.0439453 7.35547 0.0439453 9V17.6875C-0.0146484 17.8828 -0.0146484 18.0859 0.0439453 18.2812V37C0.0439453 38.6445 1.39941 40 3.04395 40H47.0439C48.6885 40 50.0439 38.6445 50.0439 37V18.1875C50.0713 18.0547 50.0713 17.9141 50.0439 17.7812V9C50.0439 7.35547 48.6885 6 47.0439 6H34.0439V3C34.0439 1.35547 32.6885 0 31.0439 0H19.0439ZM19.0439 2H31.0439C31.6064 2 32.0439 2.4375 32.0439 3V6H18.0439V3C18.0439 2.4375 18.4814 2 19.0439 2ZM3.04395 8H47.0439C47.6064 8 48.0439 8.4375 48.0439 9V17H41.0439C41.0439 15.9062 40.1377 15 39.0439 15H34.0439C32.9502 15 32.0439 15.9062 32.0439 17H18.0439C18.0439 15.9062 17.1377 15 16.0439 15H11.0439C9.9502 15 9.04395 15.9062 9.04395 17H2.04395V9C2.04395 8.4375 2.48145 8 3.04395 8ZM11.0439 17H16.0439V17.6875C15.9854 17.8828 15.9854 18.0859 16.0439 18.2812V19H11.0439V18.1875C11.0713 18.0547 11.0713 17.9141 11.0439 17.7812V17ZM34.0439 17H39.0439V17.6875C38.9854 17.8828 38.9854 18.0859 39.0439 18.2812V19H34.0439V18.1875C34.0713 18.0547 34.0713 17.9141 34.0439 17.7812V17ZM2.04395 19H9.04395C9.04395 20.0938 9.9502 21 11.0439 21H16.0439C17.1377 21 18.0439 20.0938 18.0439 19H32.0439C32.0439 20.0938 32.9502 21 34.0439 21H39.0439C40.1377 21 41.0439 20.0938 41.0439 19H48.0439V37C48.0439 37.5625 47.6064 38 47.0439 38H3.04395C2.48145 38 2.04395 37.5625 2.04395 37V19Z" fill="white"/>
</svg>
